<?xml version="1.0" encoding="UTF-8"?>
<svg id="_レイヤー_1" data-name="レイヤー 1" xmlns="http://www.w3.org/2000/svg" xmlns:xlink="http://www.w3.org/1999/xlink" viewBox="0 0 993.91 1086.84">
  <defs>
    <linearGradient id="_名称未設定グラデーション" data-name="名称未設定グラデーション" x1="14.39" y1="1049.53" x2="14.53" y2="1049.53" gradientTransform="translate(-341859.26 -560153.27) rotate(-30.58) scale(626.08)" gradientUnits="userSpaceOnUse">
      <stop offset="0" stop-color="#909ca9"/>
      <stop offset="1" stop-color="#ededee"/>
    </linearGradient>
    <linearGradient id="_名称未設定グラデーション_2" data-name="名称未設定グラデーション 2" x1="12.35" y1="1060.21" x2="12.49" y2="1060.21" gradientTransform="translate(-5189.32 -459714.91) scale(433.7)" gradientUnits="userSpaceOnUse">
      <stop offset="0" stop-color="#939fab"/>
      <stop offset="1" stop-color="#dcdee1"/>
    </linearGradient>
    <radialGradient id="_名称未設定グラデーション_3" data-name="名称未設定グラデーション 3" cx="17.79" cy="1050.67" fx="17.79" fy="1050.67" r=".15" gradientTransform="translate(-166178.65 1163829.01) rotate(-171.46) scale(559.17 1118.61) skewX(-.19)" gradientUnits="userSpaceOnUse">
      <stop offset="0" stop-color="#ee352c"/>
      <stop offset="1" stop-color="#a91d22"/>
    </radialGradient>
  </defs>
  <path d="M627.27,507.04l-217.61,71.28-189.53,83.7-52.92,14.04c-13.5,12.96-27.54,25.92-43.2,38.88-16.74,14.58-32.4,27.54-44.28,37.26-13.5,10.8-32.94,30.24-43.2,42.66-15.12,18.9-27,38.88-31.86,54-9.18,27.54-4.86,55.62,12.96,81.54,22.14,32.94,66.96,66.42,118.79,89.1,26.46,11.88,71.28,26.46,104.75,35.1,55.62,14.04,163.61,29.7,223.01,31.86,11.88.54,28.08.54,28.62,0,1.08-1.08,10.8-18.36,21.06-40.5,36.72-74.52,62.64-144.71,77.22-204.11,8.64-36.18,15.12-84.24,19.98-141.47,1.08-16.2,1.62-69.66.54-87.48-1.62-29.7-4.32-53.46-8.1-77.22-.54-3.24-1.08-6.48-.54-6.48.54-.54,2.7-1.08,29.7-8.64l-5.4-13.5ZM577.59,536.2c2.16,0,7.02,50.76,8.64,82.62.54,6.48,0,11.34,0,11.34-1.08,0-27.54-15.66-46.98-27.54-16.2-10.26-47.52-31.32-52.38-35.1q-1.62-1.08,11.88-5.94c22.68-8.1,76.68-25.38,78.84-25.38ZM466.36,572.92c1.62,0,5.4,2.16,14.58,7.56,34.02,21.06,79.92,46.98,99.89,55.62,5.94,2.7,6.48,1.62-7.02,11.34-29.7,20.52-67.5,40.5-112.85,60.48-8.1,3.78-14.58,6.48-15.12,6.48s.54-4.32,2.16-9.18c10.8-41.04,17.28-82.62,17.82-115.55q-1.08-16.74.54-16.74h0ZM443.68,581.56c1.08,1.08.54,37.8-1.08,48.06-2.7,23.76-7.56,46.44-15.12,71.82-1.62,5.94-3.24,11.34-3.78,11.34-.54,1.08-23.22-21.06-30.78-29.7-12.96-14.58-22.68-29.7-30.24-44.28-3.78-7.56-9.72-22.14-9.18-22.14,2.7-2.16,89.64-35.64,90.18-35.1h0ZM336.22,623.68c1.08.54,2.16,3.24,2.7,5.94,5.4,14.58,17.28,35.64,27.54,48.6,11.34,14.58,25.92,30.78,37.8,41.04,3.78,3.24,7.56,6.48,8.1,7.02q1.08,1.08-25.38,10.8c-31.32,11.88-64.8,23.76-103.67,36.18-9.18,3.24-18.36,5.94-27.54,9.18-1.62.54-1.08-.54,3.24-7.02,19.44-30.24,48.6-89.1,64.8-131.21,2.7-7.02,5.4-14.58,5.94-16.2.54-2.16,1.62-3.24,3.78-4.32,1.08.54,2.16,0,2.7,0h0ZM303.29,637.18c.54.54-8.1,17.82-16.2,34.02-16.2,31.32-33.48,61.56-56.7,98.82-3.78,6.48-7.56,12.42-8.1,12.96q-1.08,1.08-3.78-4.32c-5.4-10.8-10.26-25.38-12.42-38.34-2.7-12.96-2.16-35.1,1.08-49.14q2.16-10.26,7.02-12.42c19.98-10.26,88.02-42.12,89.1-41.58h0ZM586.77,649.06v7.02c0,36.72-3.78,86.94-9.72,123.65-1.08,6.48-1.62,11.88-2.16,11.88,0,0-4.86-1.08-10.26-2.7-24.84-7.56-51.3-18.9-75.6-32.4-16.2-8.64-39.42-23.22-38.34-23.76,0,0,7.02-3.78,15.12-8.1,32.4-16.74,63.18-35.1,90.18-52.92,10.26-6.48,25.38-17.82,28.62-20.52l2.16-2.16ZM179.09,697.66c.54,0,.54,1.08-.54,7.02-.54,4.32-1.62,12.42-1.62,17.82-1.08,23.76,2.7,41.58,14.58,65.88,3.24,6.48,5.94,12.42,5.94,12.42-1.08,1.08-110.15,32.94-144.17,42.12-10.26,2.7-18.9,5.4-19.98,5.4-1.08.54-1.08,0-1.08-2.7,3.78-24.3,22.14-55.62,48.06-82.62,17.28-17.82,30.78-28.08,54-41.58,16.74-8.64,42.12-23.22,44.82-23.76q-.54,0,0,0h0ZM435.58,743.55s4.32,2.16,8.64,4.86c35.1,20.52,84.24,39.42,125.81,49.14l3.78,1.08-5.4,2.7c-22.14,12.42-93.96,42.12-167.39,69.66-10.8,3.78-21.06,8.1-23.22,8.64-2.16,1.08-3.78,1.08-3.78,1.08,0,0,2.7-5.94,6.48-12.96,20.52-38.34,41.04-85.32,51.84-117.71,2.16-3.78,3.24-6.48,3.24-6.48h0ZM409.66,752.19s-1.08,3.78-2.7,7.56c-14.58,34.56-32.94,72.36-57.24,115.01-5.94,10.8-11.34,19.44-11.34,19.44,0,0-4.86-2.7-10.8-6.48-35.1-21.6-65.88-47.52-85.86-73.44l-2.7-3.78,15.12-4.32c53.46-14.58,99.36-30.24,144.71-49.68,4.86-2.16,10.26-4.32,10.8-4.32h0ZM572.19,808.89c0,3.78-8.1,37.8-15.12,62.1-5.94,20.52-10.8,36.72-19.98,65.34-3.78,12.42-7.56,22.68-7.56,22.68,0,0-1.08,0-2.16-.54-48.6-8.64-92.88-21.06-133.91-37.8-11.34-4.86-28.08-11.88-29.16-12.96-.54-.54,9.72-4.86,22.14-10.26,75.06-32.94,152.27-69.66,179.27-85.86,3.24-1.62,5.94-2.7,6.48-2.7h0ZM196.91,821.85c.54.54-20.52,30.24-49.68,71.28-10.26,14.58-22.14,31.32-26.46,37.26-4.32,6.48-11.34,16.2-15.12,22.14l-7.02,10.8-7.56-6.48c-8.64-7.02-23.76-22.68-30.78-31.32-14.04-17.82-23.76-36.18-27.54-52.92-1.62-8.1-1.62-11.88,0-12.42,2.7-.54,46.44-10.8,87.48-20.52,22.68-5.4,49.14-11.34,58.86-14.04,9.72-2.16,17.28-3.78,17.82-3.78h0ZM217.97,829.95l5.4,5.94c23.76,26.46,48.06,45.9,77.22,63.18,5.4,2.7,9.18,5.4,8.64,5.94-1.08,1.08-101.51,36.72-148.49,52.38-25.92,9.18-47.52,16.74-48.06,16.74l-3.24-2.16-2.7-2.16,4.86-7.02c15.66-22.14,35.1-46.98,77.22-97.74l29.16-35.1ZM349.18,923.9s7.56,2.7,16.2,5.94c21.6,8.1,38.34,12.96,61.02,18.9,28.08,7.02,68.58,14.04,92.34,16.2,3.78.54,5.4.54,4.86,1.08-1.08.54-25.38,8.64-43.2,14.58-28.08,8.64-114.47,34.56-185.21,54.54-12.96,3.78-24.3,7.02-24.84,7.02-1.62.54-7.02-1.08-7.02-1.62s3.78-5.4,8.64-10.8c23.76-28.08,46.98-59.94,66.96-89.64,5.4-9.72,10.26-16.2,10.26-16.2h0ZM320.03,924.44s-11.34,18.9-31.86,51.3c-8.64,13.5-18.36,29.16-22.14,34.56-3.24,5.4-8.1,13.5-10.8,18.36l-4.86,8.64-2.7-.54c-5.94-1.62-47.52-16.2-58.32-20.52-13.5-5.4-27.54-11.88-38.34-17.82-12.96-7.02-29.7-17.82-28.08-17.82.54,0,22.68-6.48,50.22-13.5,71.82-19.44,111.77-30.78,138.23-39.42,4.32-2.16,8.64-3.24,8.64-3.24h0ZM524.68,972.5c1.08,1.62-25.92,75.6-35.64,98.81-2.16,5.4-2.7,6.48-4.32,6.48-2.7,0-41.58-5.4-64.8-9.18-41.04-6.48-109.61-18.36-126.89-22.14l-3.78-1.08,24.3-5.4c52.92-11.88,77.76-18.36,103.67-25.92,32.4-9.72,64.26-22.14,96.66-37.26,5.4-2.16,9.72-4.32,10.8-4.32Z" fill="url(#_名称未設定グラデーション)"/>
  <path d="M402.64.01c-3.78-.54-62.1,20.52-99.89,35.64-50.76,20.52-90.18,40.5-114.47,57.78-9.18,6.48-20.52,17.82-22.14,22.14-.54,1.62-1.08,3.78-1.08,5.4l22.14,21.06,52.38,16.74,124.73,22.14,142.55,24.3,1.62-12.42h-1.08l-18.9-2.7-3.78-6.48c-19.44-34.02-41.04-76.68-53.46-105.29-9.72-22.14-18.9-48.06-23.76-66.42C404.8.55,404.26.01,402.64.01h0ZM399.94,8.11c.54,0,1.08,4.86,1.62,10.26,2.7,23.22,8.1,45.36,16.2,69.12,5.94,18.36,5.94,17.28-1.08,15.12-16.74-4.86-91.8-17.82-146.33-25.38-8.64-1.08-16.2-2.16-16.2-2.7-.54-.54,39.42-21.6,56.7-29.7,22.68-10.26,84.78-35.64,89.1-36.72h0ZM241.19,82.09l6.48,2.16c35.1,11.88,122.57,28.62,171.17,32.4,5.4.54,10.26,1.08,10.26,1.08,0,0-4.32,2.7-10.26,5.4-23.22,11.88-49.14,25.92-66.96,37.26-5.4,3.24-10.26,5.94-10.8,5.94s-4.32-.54-7.56-1.08l-6.48-1.08-16.2-16.2c-29.16-28.08-51.84-49.68-60.48-58.32l-9.18-7.56ZM234.71,86.95l23.22,29.16c12.42,16.2,25.38,31.32,28.08,35.1,2.7,3.24,4.86,6.48,4.86,6.48-.54.54-33.48-5.94-50.76-9.72-17.82-4.32-25.38-5.94-36.18-9.72l-9.18-2.7v-2.16c0-10.8,14.04-27.54,37.8-44.28l2.16-2.16ZM431.8,126.36c.54,0,1.62,1.62,3.24,5.94,5.4,12.42,23.22,45.36,27.54,51.84,1.08,2.16,3.78,2.16-19.44-1.62-55.62-9.18-73.44-11.88-73.44-12.42,0,0,1.62-1.08,3.78-2.7,17.28-9.72,34.56-21.6,50.22-34.56,3.78-3.24,7.02-5.94,8.1-6.48-.54,0,0,0,0,0Z" fill="url(#_名称未設定グラデーション_2)"/>
  <path d="M167.21,112.86s-3.78,5.94,0,14.58c2.16,5.4,8.64,11.88,15.66,18.36,0,0,73.44,71.28,82.08,81.54,40.5,46.98,58.32,92.88,59.94,156.05,1.08,41.04-6.48,76.68-25.92,118.25-34.02,74.52-106.37,157.13-217.61,248.39l16.2-5.4c10.26-8.1,24.84-16.2,58.32-34.56,77.76-42.66,164.69-81.54,271.61-121.49,153.89-57.78,407.14-125.81,551.31-147.95l15.12-2.16-2.16-3.78c-12.96-20.52-22.14-32.94-32.94-46.44-31.32-39.42-69.66-70.74-116.63-97.2-64.26-36.18-147.95-64.26-253.79-85.32-19.98-3.78-63.72-11.34-99.35-16.74-75.6-11.88-124.19-19.98-177.65-29.16-19.44-3.24-48.06-8.1-66.96-12.42-9.72-2.16-28.62-6.48-43.74-11.88-12.96-3.78-29.7-8.64-33.48-22.68h0ZM209.87,154.44s2.7,1.08,6.48,2.16c6.48,2.16,14.58,4.86,23.76,7.02,7.02,2.16,14.58,3.78,21.6,5.94,9.72,2.7,18.36,4.86,18.36,4.86,1.08,1.08,17.82,54.54,23.22,74.52,2.16,7.56,3.78,14.58,3.78,14.58,0,0-2.16-2.7-4.32-6.48-19.44-34.02-49.68-68.04-84.78-96.12-4.86-3.78-8.1-6.48-8.1-6.48h0ZM290.87,176.58c1.08,0,4.32.54,8.64,1.62,28.08,6.48,78.3,15.66,110.15,21.06,5.4,1.08,9.72,1.62,9.72,2.16s-2.16,1.62-4.32,2.7c-5.4,2.7-27.54,15.66-34.56,20.52-18.36,12.42-34.56,25.38-46.44,37.26l-8.64,8.64s-1.08-2.7-1.62-6.48c-5.94-22.68-18.36-56.7-29.7-80.46-2.16-3.24-3.78-7.02-3.24-7.02q-.54,0,0,0h0ZM432.88,203.58c1.08.54,2.7,5.94,5.94,18.36,5.94,23.76,8.64,50.76,8.1,75.6-.54,7.02-.54,13.5-1.08,14.04l-.54,1.62-8.64-2.7c-17.82-5.4-46.44-14.04-70.74-21.06-14.04-3.78-25.38-7.02-25.38-7.56,0-1.08,20.52-21.6,29.16-29.16,16.74-14.58,62.1-49.68,63.18-49.14h0ZM444.22,205.2c.54-.54,68.04,11.34,98.81,17.28,22.68,4.32,56.16,11.34,58.32,12.42,1.08.54-2.7,2.16-13.5,7.02-43.2,19.44-75.6,37.26-107.99,58.32-8.64,5.4-15.66,10.26-15.66,10.26,0,0-.54-4.86-.54-10.26,0-31.32-6.48-62.64-17.82-89.64-.54-2.7-1.62-4.86-1.62-5.4ZM619.17,239.76c.54.54-1.62,14.04-3.78,21.6-5.94,24.3-22.14,61.02-41.58,95.04-3.24,5.94-6.48,10.8-7.02,11.34-.54,0-4.86-2.16-9.72-5.4-18.9-11.34-41.04-21.6-64.26-31.32-6.48-2.7-12.42-4.86-12.42-5.4-1.08-1.08,51.84-36.18,79.92-52.92,22.14-13.5,58.32-33.48,58.86-32.94ZM631.59,241.92c1.62,0,31.32,8.1,46.98,12.96,38.88,11.34,83.16,27.54,111.77,41.04l11.88,5.4-8.64,2.16c-70.74,16.2-131.21,35.1-189.53,58.86-4.86,2.16-9.18,3.78-9.18,3.78-.54,0,1.08-3.78,3.24-8.64,17.82-37.26,29.16-76.14,31.86-109.61,1.08-3.24,1.62-5.94,1.62-5.94h0ZM333.53,310.49c.54-.54,23.22,4.86,35.64,8.64,18.9,5.4,58.32,18.36,58.32,19.44,0,0-4.32,3.78-9.72,8.64-21.6,17.82-42.12,36.72-66.96,61.02-7.56,7.02-13.5,12.96-14.04,12.96s-.54-1.08-.54-2.16c3.78-27.54,2.7-63.18-2.16-99.35,0-5.4-.54-9.18-.54-9.18h0ZM814.1,311.03c.54.54-10.8,17.28-17.28,27-9.72,14.04-24.3,32.94-57.24,73.98-17.28,21.6-36.72,46.44-43.2,54.54s-11.88,15.12-12.42,15.12c0,0-2.16-2.7-4.86-6.48-18.36-27.54-40.5-51.84-66.42-73.44-4.86-4.32-10.26-8.64-12.42-9.72-1.62-1.08-3.24-2.7-3.24-2.7,0-.54,28.08-12.42,49.14-21.06,37.26-15.12,88.02-33.48,125.81-44.82,20.52-7.02,42.12-12.96,42.12-12.42ZM827.06,314.27c.54,0,4.86,1.62,9.18,4.86,39.96,22.68,79.38,52.38,110.15,82.62,8.64,8.64,30.24,30.78,29.7,31.32,0,0-7.56.54-16.2,1.08-69.12,5.4-157.67,19.98-242.99,40.5-5.94,1.08-10.8,2.7-11.34,2.7s5.94-6.48,14.04-14.04c50.22-48.06,72.9-78.84,99.89-132.83,3.78-9.18,7.02-15.66,7.56-16.2q-.54,0,0,0h0ZM460.42,351.53c2.16.54,23.76,10.8,39.96,18.36,14.58,7.56,37.26,19.44,38.34,19.98,0,0-7.56,4.32-17.28,9.18-30.78,15.66-57.24,30.24-85.32,46.98-8.1,4.86-14.58,8.64-14.58,8.64-.54,0-.54-.54,3.78-8.64,14.58-27,26.46-59.4,33.48-90.72.54-2.16,1.08-3.78,1.62-3.78h0ZM439.36,355.85c.54.54-4.86,20.52-8.64,31.86-6.48,21.06-18.36,46.98-29.16,66.96-2.7,4.86-6.48,11.34-8.64,15.12l-4.32,6.48-9.18-8.64c-10.8-10.26-19.44-16.74-30.78-22.68-4.32-2.16-8.1-4.32-8.1-4.86,0-1.08,28.08-27,49.68-45.36,15.66-13.5,48.6-39.42,49.14-38.88ZM570.03,409.31l8.1,5.4c18.36,11.88,39.96,28.08,56.7,42.12,9.18,7.56,27.54,23.76,31.32,28.08l2.16,2.16-13.5,3.78c-75.6,21.06-133.37,39.42-201.41,64.26-7.56,2.7-14.04,4.86-14.58,4.86-1.08,0-1.62,1.08,15.12-14.58,43.2-39.96,82.08-84.24,110.69-126.89l5.4-9.18ZM535.47,417.95c.54.54-22.14,31.86-35.64,50.22-16.2,21.6-44.82,57.24-64.26,80.46-8.1,9.72-15.12,17.82-15.66,17.82s-.54-2.16-.54-5.94c0-19.98-4.86-41.04-14.04-59.4-3.78-7.56-4.32-9.18-3.78-10.26,3.24-2.7,50.76-30.24,81.54-46.44,19.98-10.8,51.84-27,52.38-26.46ZM327.59,468.71c.54,0,4.32,2.16,8.64,4.32,10.26,5.94,19.98,12.42,28.08,18.9.54.54-3.78,3.78-9.72,8.1-15.66,11.34-39.42,29.16-52.92,39.96-14.58,11.34-15.12,11.88-13.5,9.18,10.8-16.74,16.2-25.92,22.14-37.8,4.86-10.8,10.26-23.22,14.04-34.56,1.08-4.32,2.7-8.1,3.24-8.1h0ZM383.2,512.44c1.08,0,1.62,1.08,6.48,8.1,9.18,14.04,16.74,32.94,18.36,48.06l.54,3.24-22.68,8.64c-40.5,15.66-77.76,31.32-102.59,42.66-7.02,3.24-19.44,9.18-27.54,12.96-8.1,4.32-14.58,7.02-14.58,7.02,0,0,4.86-3.78,11.34-8.64,49.14-35.64,91.8-75.06,123.65-113.93,3.24-4.32,6.48-8.1,7.02-8.1h0ZM357.82,518.38c.54.54-18.36,22.14-30.78,35.1-31.86,32.4-63.18,57.78-102.05,82.62-4.86,3.24-9.18,5.94-9.72,6.48-1.08.54.54-1.08,17.28-19.44,10.8-11.88,18.9-21.6,28.62-33.48,6.48-8.1,7.56-9.18,16.2-15.66,23.76-18.36,79.38-56.16,80.46-55.62Z" fill="url(#_名称未設定グラデーション_3)"/>
</svg>